<svg xmlns="http://www.w3.org/2000/svg" viewBox="0 0 720 860"><defs><linearGradient id="bg" x1="0" x2="1" y1="0" y2="1"><stop offset="0%" stop-color="#d8c7b6"/><stop offset="100%" stop-color="#6e8477"/></linearGradient></defs><rect width="720" height="860" rx="48" fill="url(#bg)"/><circle cx="360" cy="238" r="152" fill="#f5f1ea" opacity=".15"/><path d="M360 150c83 0 146 67 146 152 0 88-62 150-146 150s-146-62-146-150c0-85 63-152 146-152Zm0 358c154 0 246 105 246 251v37H114v-37c0-146 92-251 246-251Z" fill="#171714" opacity=".76"/><rect x="64" y="696" width="592" height="112" rx="26" fill="#171714" opacity=".10"/><text x="360" y="744" text-anchor="middle" fill="#171714" opacity=".78" font-family="Inter, Arial, sans-serif" font-size="24" font-weight="600">Portrait placeholder</text><text x="360" y="780" text-anchor="middle" fill="#171714" opacity=".58" font-family="Inter, Arial, sans-serif" font-size="18">Replace with your photo</text></svg>